<?xml version="1.0" encoding="UTF-8" standalone="no"?>
<!DOCTYPE svg PUBLIC "-//W3C//DTD SVG 1.1//EN"
 "http://www.w3.org/Graphics/SVG/1.1/DTD/svg11.dtd">
<!-- Generated by graphviz version 2.38.0 (20140413.2041)
 -->
<!-- Title: G Pages: 1 -->
<svg width="550pt" height="564pt"
     viewBox="0.00 0.00 550.07 564.00" xmlns="http://www.w3.org/2000/svg" xmlns:xlink="http://www.w3.org/1999/xlink">
    <g id="graph0" class="graph" transform="scale(1 1) rotate(0) translate(4 560)">
<title>G</title>
        <polygon fill="white" stroke="none" points="-4,4 -4,-560 546.073,-560 546.073,4 -4,4"/>
<g id="clust1" class="cluster"><title>cluster_Global</title>
    <path fill="none" stroke="gray"
          d="M376.073,-8C376.073,-8 522.073,-8 522.073,-8 528.073,-8 534.073,-14 534.073,-20 534.073,-20 534.073,-536 534.073,-536 534.073,-542 528.073,-548 522.073,-548 522.073,-548 376.073,-548 376.073,-548 370.073,-548 364.073,-542 364.073,-536 364.073,-536 364.073,-20 364.073,-20 364.073,-14 370.073,-8 376.073,-8"/>
    <text text-anchor="middle" x="449.073" y="-535.2" font-family="Times,serif" font-size="11.00" fill="gray">Global
    </text>
</g>
<g id="clust2" class="cluster"><title>cluster_\StJosephsChurchEastWall</title>
    <path fill="none" stroke="gray"
          d="M384.073,-16C384.073,-16 514.073,-16 514.073,-16 520.073,-16 526.073,-22 526.073,-28 526.073,-28 526.073,-508 526.073,-508 526.073,-514 520.073,-520 514.073,-520 514.073,-520 384.073,-520 384.073,-520 378.073,-520 372.073,-514 372.073,-508 372.073,-508 372.073,-28 372.073,-28 372.073,-22 378.073,-16 384.073,-16"/>
    <text text-anchor="middle" x="449.073" y="-507.2" font-family="Times,serif" font-size="11.00" fill="gray">
        StJosephsChurchEastWall
    </text>
</g>
<!-- \\StJosephsChurchEastWall\\NewsFeedController -->
<g id="node1" class="node"><title>\\StJosephsChurchEastWall\\NewsFeedController</title>
    <polygon fill="none" stroke="black" points="518.073,-492 380.073,-492 380.073,-456 518.073,-456 518.073,-492"/>
    <text text-anchor="middle" x="449.073" y="-471.2" font-family="Courier,monospace" font-size="11.00">
        NewsFeedController
    </text>
</g>
<!-- \\StJosephsChurchEastWall\\Verse -->
<g id="node2" class="node"><title>\\StJosephsChurchEastWall\\Verse</title>
    <polygon fill="none" stroke="black" points="476.073,-438 422.073,-438 422.073,-402 476.073,-402 476.073,-438"/>
    <text text-anchor="middle" x="449.073" y="-417.2" font-family="Courier,monospace" font-size="11.00">Verse</text>
</g>
<!-- \\Mattsmithdev\\PdoCrud\\DatabaseTable -->
        <g id="node10" class="node">
            <title>\\Mattsmithdev\\PdoCrud\\DatabaseTable</title>
            <ellipse fill="none" stroke="black" cx="154.036" cy="-339" rx="154.073" ry="18"/>
            <text text-anchor="middle" x="154.036" y="-335.3" font-family="Times,serif" font-size="14.00" fill="gray">
                \Mattsmithdev\PdoCrud\DatabaseTable
            </text>
</g>
<!-- \\StJosephsChurchEastWall\\Verse&#45;&gt;\\Mattsmithdev\\PdoCrud\\DatabaseTable -->
<g id="edge1" class="edge"><title>\\StJosephsChurchEastWall\\Verse&#45;&gt;\\Mattsmithdev\\PdoCrud\\DatabaseTable</title>
    <path fill="none" stroke="black" d="M422.068,-412.812C378.258,-400.702 288.325,-375.843 224.969,-358.33"/>
    <polygon fill="none" stroke="black" points="225.611,-354.877 215.04,-355.586 223.746,-361.624 225.611,-354.877"/>
</g>
<!-- \\StJosephsChurchEastWall\\User -->
<g id="node3" class="node"><title>\\StJosephsChurchEastWall\\User</title>
    <polygon fill="none" stroke="black" points="476.073,-384 422.073,-384 422.073,-348 476.073,-348 476.073,-384"/>
    <text text-anchor="middle" x="449.073" y="-363.2" font-family="Courier,monospace" font-size="11.00">User</text>
</g>
<!-- \\StJosephsChurchEastWall\\User&#45;&gt;\\Mattsmithdev\\PdoCrud\\DatabaseTable -->
<g id="edge2" class="edge"><title>\\StJosephsChurchEastWall\\User&#45;&gt;\\Mattsmithdev\\PdoCrud\\DatabaseTable</title>
    <path fill="none" stroke="black" d="M422.068,-363.604C391.142,-360.755 337.235,-355.788 285.916,-351.059"/>
    <polygon fill="none" stroke="black" points="285.973,-347.55 275.694,-350.117 285.331,-354.52 285.973,-347.55"/>
</g>
<!-- \\StJosephsChurchEastWall\\NewsFeed -->
<g id="node4" class="node"><title>\\StJosephsChurchEastWall\\NewsFeed</title>
    <polygon fill="none" stroke="black" points="484.573,-330 413.573,-330 413.573,-294 484.573,-294 484.573,-330"/>
    <text text-anchor="middle" x="449.073" y="-309.2" font-family="Courier,monospace" font-size="11.00">NewsFeed</text>
</g>
<!-- \\StJosephsChurchEastWall\\NewsFeed&#45;&gt;\\Mattsmithdev\\PdoCrud\\DatabaseTable -->
<g id="edge3" class="edge"><title>\\StJosephsChurchEastWall\\NewsFeed&#45;&gt;\\Mattsmithdev\\PdoCrud\\DatabaseTable</title>
    <path fill="none" stroke="black" d="M413.307,-315.203C381.598,-318.125 332.697,-322.631 285.941,-326.939"/>
    <polygon fill="none" stroke="black" points="285.327,-323.48 275.691,-327.883 285.97,-330.451 285.327,-323.48"/>
</g>
<!-- \\StJosephsChurchEastWall\\LoginController -->
<g id="node5" class="node"><title>\\StJosephsChurchEastWall\\LoginController</title>
    <polygon fill="none" stroke="black" points="508.073,-276 390.073,-276 390.073,-240 508.073,-240 508.073,-276"/>
    <text text-anchor="middle" x="449.073" y="-255.2" font-family="Courier,monospace" font-size="11.00">
        LoginController
    </text>
</g>
<!-- \\StJosephsChurchEastWall\\Product -->
<g id="node6" class="node"><title>\\StJosephsChurchEastWall\\Product</title>
    <polygon fill="none" stroke="black" points="481.073,-222 417.073,-222 417.073,-186 481.073,-186 481.073,-222"/>
    <text text-anchor="middle" x="449.073" y="-201.2" font-family="Courier,monospace" font-size="11.00">Product</text>
</g>
<!-- \\StJosephsChurchEastWall\\Product&#45;&gt;\\Mattsmithdev\\PdoCrud\\DatabaseTable -->
<g id="edge4" class="edge"><title>\\StJosephsChurchEastWall\\Product&#45;&gt;\\Mattsmithdev\\PdoCrud\\DatabaseTable</title>
    <path fill="none" stroke="black"
          d="M416.91,-212.671C400.89,-217.465 381.188,-223.886 364.073,-231 303.055,-256.363 235.684,-292.796 194.353,-316.182"/>
    <polygon fill="none" stroke="black" points="192.399,-313.267 185.437,-321.253 195.859,-319.352 192.399,-313.267"/>
</g>
<!-- \\StJosephsChurchEastWall\\CartController -->
<g id="node7" class="node"><title>\\StJosephsChurchEastWall\\CartController</title>
    <polygon fill="none" stroke="black" points="504.573,-168 393.573,-168 393.573,-132 504.573,-132 504.573,-168"/>
    <text text-anchor="middle" x="449.073" y="-147.2" font-family="Courier,monospace" font-size="11.00">CartController
    </text>
</g>
<!-- \\StJosephsChurchEastWall\\MainController -->
<g id="node8" class="node"><title>\\StJosephsChurchEastWall\\MainController</title>
    <polygon fill="none" stroke="black" points="504.573,-114 393.573,-114 393.573,-78 504.573,-78 504.573,-114"/>
    <text text-anchor="middle" x="449.073" y="-93.2" font-family="Courier,monospace" font-size="11.00">MainController
    </text>
</g>
<!-- \\StJosephsChurchEastWall\\AdminController -->
<g id="node9" class="node"><title>\\StJosephsChurchEastWall\\AdminController</title>
    <polygon fill="none" stroke="black" points="508.073,-60 390.073,-60 390.073,-24 508.073,-24 508.073,-60"/>
    <text text-anchor="middle" x="449.073" y="-39.2" font-family="Courier,monospace" font-size="11.00">AdminController
    </text>
</g>
</g>
</svg>
