<?xml version="1.0" encoding="UTF-8" standalone="no"?>
<!DOCTYPE svg PUBLIC "-//W3C//DTD SVG 1.1//EN"
 "http://www.w3.org/Graphics/SVG/1.1/DTD/svg11.dtd">
<!-- Generated by graphviz version 2.38.0 (20140413.2041)
 -->
<!-- Title: G Pages: 1 -->
<svg width="550pt" height="644pt"
 viewBox="0.00 0.00 550.07 644.00" xmlns="http://www.w3.org/2000/svg" xmlns:xlink="http://www.w3.org/1999/xlink">
<g id="graph0" class="graph" transform="scale(1 1) rotate(0) translate(4 640)">
<title>G</title>
<polygon fill="white" stroke="none" points="-4,4 -4,-640 546.073,-640 546.073,4 -4,4"/>
<g id="clust1" class="cluster"><title>cluster_Global</title>
<path fill="none" stroke="gray" d="M376.073,-8C376.073,-8 522.073,-8 522.073,-8 528.073,-8 534.073,-14 534.073,-20 534.073,-20 534.073,-616 534.073,-616 534.073,-622 528.073,-628 522.073,-628 522.073,-628 376.073,-628 376.073,-628 370.073,-628 364.073,-622 364.073,-616 364.073,-616 364.073,-20 364.073,-20 364.073,-14 370.073,-8 376.073,-8"/>
<text text-anchor="middle" x="449.073" y="-615.2" font-family="Times,serif" font-size="11.00" fill="gray">Global</text>
</g>
<g id="clust2" class="cluster"><title>cluster_\StJosephsChurchEastWall</title>
<path fill="none" stroke="gray" d="M384.073,-96C384.073,-96 514.073,-96 514.073,-96 520.073,-96 526.073,-102 526.073,-108 526.073,-108 526.073,-588 526.073,-588 526.073,-594 520.073,-600 514.073,-600 514.073,-600 384.073,-600 384.073,-600 378.073,-600 372.073,-594 372.073,-588 372.073,-588 372.073,-108 372.073,-108 372.073,-102 378.073,-96 384.073,-96"/>
<text text-anchor="middle" x="449.073" y="-587.2" font-family="Times,serif" font-size="11.00" fill="gray">StJosephsChurchEastWall</text>
</g>
<g id="clust3" class="cluster"><title>cluster_\StJosephsChurchEastWallTest</title>
<path fill="none" stroke="gray" d="M385.573,-16C385.573,-16 511.573,-16 511.573,-16 517.573,-16 523.573,-22 523.573,-28 523.573,-28 523.573,-76 523.573,-76 523.573,-82 517.573,-88 511.573,-88 511.573,-88 385.573,-88 385.573,-88 379.573,-88 373.573,-82 373.573,-76 373.573,-76 373.573,-28 373.573,-28 373.573,-22 379.573,-16 385.573,-16"/>
<text text-anchor="middle" x="448.573" y="-75.2" font-family="Times,serif" font-size="11.00" fill="gray">StJosephsChurchEastWallTest</text>
</g>
<!-- \\StJosephsChurchEastWall\\NewsFeedController -->
<g id="node1" class="node"><title>\\StJosephsChurchEastWall\\NewsFeedController</title>
<polygon fill="none" stroke="black" points="518.073,-572 380.073,-572 380.073,-536 518.073,-536 518.073,-572"/>
<text text-anchor="middle" x="449.073" y="-551.2" font-family="Courier,monospace" font-size="11.00">NewsFeedController</text>
</g>
<!-- \\StJosephsChurchEastWall\\Verse -->
<g id="node2" class="node"><title>\\StJosephsChurchEastWall\\Verse</title>
<polygon fill="none" stroke="black" points="476.073,-518 422.073,-518 422.073,-482 476.073,-482 476.073,-518"/>
<text text-anchor="middle" x="449.073" y="-497.2" font-family="Courier,monospace" font-size="11.00">Verse</text>
</g>
<!-- \\Mattsmithdev\\PdoCrud\\DatabaseTable -->
<g id="node11" class="node"><title>\\Mattsmithdev\\PdoCrud\\DatabaseTable</title>
<ellipse fill="none" stroke="black" cx="154.036" cy="-419" rx="154.073" ry="18"/>
<text text-anchor="middle" x="154.036" y="-415.3" font-family="Times,serif" font-size="14.00" fill="gray">\Mattsmithdev\PdoCrud\DatabaseTable</text>
</g>
<!-- \\StJosephsChurchEastWall\\Verse&#45;&gt;\\Mattsmithdev\\PdoCrud\\DatabaseTable -->
<g id="edge1" class="edge"><title>\\StJosephsChurchEastWall\\Verse&#45;&gt;\\Mattsmithdev\\PdoCrud\\DatabaseTable</title>
<path fill="none" stroke="black" d="M422.068,-492.812C378.258,-480.702 288.325,-455.843 224.969,-438.33"/>
<polygon fill="none" stroke="black" points="225.611,-434.877 215.04,-435.586 223.746,-441.624 225.611,-434.877"/>
</g>
<!-- \\StJosephsChurchEastWall\\User -->
<g id="node3" class="node"><title>\\StJosephsChurchEastWall\\User</title>
<polygon fill="none" stroke="black" points="476.073,-464 422.073,-464 422.073,-428 476.073,-428 476.073,-464"/>
<text text-anchor="middle" x="449.073" y="-443.2" font-family="Courier,monospace" font-size="11.00">User</text>
</g>
<!-- \\StJosephsChurchEastWall\\User&#45;&gt;\\Mattsmithdev\\PdoCrud\\DatabaseTable -->
<g id="edge2" class="edge"><title>\\StJosephsChurchEastWall\\User&#45;&gt;\\Mattsmithdev\\PdoCrud\\DatabaseTable</title>
<path fill="none" stroke="black" d="M422.068,-443.604C391.142,-440.755 337.235,-435.788 285.916,-431.059"/>
<polygon fill="none" stroke="black" points="285.973,-427.55 275.694,-430.117 285.331,-434.52 285.973,-427.55"/>
</g>
<!-- \\StJosephsChurchEastWall\\NewsFeed -->
<g id="node4" class="node"><title>\\StJosephsChurchEastWall\\NewsFeed</title>
<polygon fill="none" stroke="black" points="484.573,-410 413.573,-410 413.573,-374 484.573,-374 484.573,-410"/>
<text text-anchor="middle" x="449.073" y="-389.2" font-family="Courier,monospace" font-size="11.00">NewsFeed</text>
</g>
<!-- \\StJosephsChurchEastWall\\NewsFeed&#45;&gt;\\Mattsmithdev\\PdoCrud\\DatabaseTable -->
<g id="edge3" class="edge"><title>\\StJosephsChurchEastWall\\NewsFeed&#45;&gt;\\Mattsmithdev\\PdoCrud\\DatabaseTable</title>
<path fill="none" stroke="black" d="M413.307,-395.203C381.598,-398.125 332.697,-402.631 285.941,-406.939"/>
<polygon fill="none" stroke="black" points="285.327,-403.48 275.691,-407.883 285.97,-410.451 285.327,-403.48"/>
</g>
<!-- \\StJosephsChurchEastWall\\LoginController -->
<g id="node5" class="node"><title>\\StJosephsChurchEastWall\\LoginController</title>
<polygon fill="none" stroke="black" points="508.073,-356 390.073,-356 390.073,-320 508.073,-320 508.073,-356"/>
<text text-anchor="middle" x="449.073" y="-335.2" font-family="Courier,monospace" font-size="11.00">LoginController</text>
</g>
<!-- \\StJosephsChurchEastWall\\Product -->
<g id="node6" class="node"><title>\\StJosephsChurchEastWall\\Product</title>
<polygon fill="none" stroke="black" points="481.073,-302 417.073,-302 417.073,-266 481.073,-266 481.073,-302"/>
<text text-anchor="middle" x="449.073" y="-281.2" font-family="Courier,monospace" font-size="11.00">Product</text>
</g>
<!-- \\StJosephsChurchEastWall\\Product&#45;&gt;\\Mattsmithdev\\PdoCrud\\DatabaseTable -->
<g id="edge4" class="edge"><title>\\StJosephsChurchEastWall\\Product&#45;&gt;\\Mattsmithdev\\PdoCrud\\DatabaseTable</title>
<path fill="none" stroke="black" d="M416.91,-292.671C400.89,-297.465 381.188,-303.886 364.073,-311 303.055,-336.363 235.684,-372.796 194.353,-396.182"/>
<polygon fill="none" stroke="black" points="192.399,-393.267 185.437,-401.253 195.859,-399.352 192.399,-393.267"/>
</g>
<!-- \\StJosephsChurchEastWall\\CartController -->
<g id="node7" class="node"><title>\\StJosephsChurchEastWall\\CartController</title>
<polygon fill="none" stroke="black" points="504.573,-248 393.573,-248 393.573,-212 504.573,-212 504.573,-248"/>
<text text-anchor="middle" x="449.073" y="-227.2" font-family="Courier,monospace" font-size="11.00">CartController</text>
</g>
<!-- \\StJosephsChurchEastWall\\MainController -->
<g id="node8" class="node"><title>\\StJosephsChurchEastWall\\MainController</title>
<polygon fill="none" stroke="black" points="504.573,-194 393.573,-194 393.573,-158 504.573,-158 504.573,-194"/>
<text text-anchor="middle" x="449.073" y="-173.2" font-family="Courier,monospace" font-size="11.00">MainController</text>
</g>
<!-- \\StJosephsChurchEastWall\\AdminController -->
<g id="node9" class="node"><title>\\StJosephsChurchEastWall\\AdminController</title>
<polygon fill="none" stroke="black" points="508.073,-140 390.073,-140 390.073,-104 508.073,-104 508.073,-140"/>
<text text-anchor="middle" x="449.073" y="-119.2" font-family="Courier,monospace" font-size="11.00">AdminController</text>
</g>
<!-- \\StJosephsChurchEastWallTest\\ZMetaTest -->
<g id="node10" class="node"><title>\\StJosephsChurchEastWallTest\\ZMetaTest</title>
<polygon fill="none" stroke="black" points="487.573,-60 410.573,-60 410.573,-24 487.573,-24 487.573,-60"/>
<text text-anchor="middle" x="449.073" y="-39.2" font-family="Courier,monospace" font-size="11.00">ZMetaTest</text>
</g>
<!-- \\PHPUnit_Framework_TestCase -->
<g id="node12" class="node"><title>\\PHPUnit_Framework_TestCase</title>
<ellipse fill="none" stroke="black" cx="154.036" cy="-42" rx="129.977" ry="18"/>
<text text-anchor="middle" x="154.036" y="-38.3" font-family="Times,serif" font-size="14.00" fill="gray">\PHPUnit_Framework_TestCase</text>
</g>
<!-- \\StJosephsChurchEastWallTest\\ZMetaTest&#45;&gt;\\PHPUnit_Framework_TestCase -->
<g id="edge5" class="edge"><title>\\StJosephsChurchEastWallTest\\ZMetaTest&#45;&gt;\\PHPUnit_Framework_TestCase</title>
<path fill="none" stroke="black" d="M410.363,-42C380.597,-42 337.105,-42 294.422,-42"/>
<polygon fill="none" stroke="black" points="294.179,-38.5001 284.179,-42 294.179,-45.5001 294.179,-38.5001"/>
</g>
</g>
</svg>
